<svg width="34" height="34" viewBox="0 0 34 34" fill="none" xmlns="http://www.w3.org/2000/svg">
<path d="M23.9833 0.333496H10.0166C3.94992 0.333496 0.333252 3.95016 0.333252 10.0168V23.9668C0.333252 30.0502 3.94992 33.6668 10.0166 33.6668H23.9666C30.0333 33.6668 33.6499 30.0502 33.6499 23.9835V10.0168C33.6666 3.95016 30.0499 0.333496 23.9833 0.333496ZM21.6499 17.8835L15.7666 23.7668C15.5166 24.0168 15.1999 24.1335 14.8833 24.1335C14.5666 24.1335 14.2499 24.0168 13.9999 23.7668C13.5166 23.2835 13.5166 22.4835 13.9999 22.0002L18.9999 17.0002L13.9999 12.0002C13.5166 11.5168 13.5166 10.7168 13.9999 10.2335C14.4833 9.75016 15.2833 9.75016 15.7666 10.2335L21.6499 16.1168C22.1499 16.6002 22.1499 17.4002 21.6499 17.8835Z" fill="white"/>
</svg>
