<svg width="34" height="34" viewBox="0 0 34 34" fill="none" xmlns="http://www.w3.org/2000/svg">
<path d="M23.9833 0.333496H10.0166C3.94992 0.333496 0.333252 3.95016 0.333252 10.0168V23.9668C0.333252 30.0502 3.94992 33.6668 10.0166 33.6668H23.9666C30.0333 33.6668 33.6499 30.0502 33.6499 23.9835V10.0168C33.6666 3.95016 30.0499 0.333496 23.9833 0.333496ZM19.9833 22.0002C20.4666 22.4835 20.4666 23.2835 19.9833 23.7668C19.7333 24.0168 19.4166 24.1335 19.0999 24.1335C18.7833 24.1335 18.4666 24.0168 18.2166 23.7668L12.3333 17.8835C11.8499 17.4002 11.8499 16.6002 12.3333 16.1168L18.2166 10.2335C18.6999 9.75016 19.4999 9.75016 19.9833 10.2335C20.4666 10.7168 20.4666 11.5168 19.9833 12.0002L14.9833 17.0002L19.9833 22.0002Z" fill="white"/>
</svg>
