<svg width="24" height="25" viewBox="0 0 24 25" fill="none" xmlns="http://www.w3.org/2000/svg">
<path d="M20.98 10.9444C20.76 7.00417 17.87 3.72067 14.01 3.05387C13.95 2.27593 13.31 1.64954 12.52 1.64954H11.52C10.73 1.64954 10.1 2.26582 10.03 3.04376C6.15002 3.69036 3.24002 6.98397 3.02002 10.9444C2.31002 11.0656 1.77002 11.6819 1.77002 12.4295V13.4398C1.77002 14.2784 2.44002 14.9553 3.27002 14.9553H4.27002C5.10002 14.9553 5.77002 14.2784 5.77002 13.4398V12.4295C5.77002 11.6819 5.23002 11.0656 4.52002 10.9444C4.73002 7.79222 7.02002 5.17552 10.08 4.56933C10.25 5.21593 10.83 5.69077 11.52 5.69077H12.52C13.21 5.69077 13.78 5.21593 13.96 4.57943C17 5.19572 19.27 7.81242 19.48 10.9444C18.77 11.0656 18.23 11.6819 18.23 12.4295V13.4398C18.23 14.2784 18.9 14.9553 19.73 14.9553H20.73C21.56 14.9553 22.23 14.2784 22.23 13.4398V12.4295C22.23 11.6819 21.69 11.0555 20.98 10.9444Z" fill="black"/>
<path d="M15.7701 16.8547L14.1301 18.3196H9.88008L8.24008 16.8547C7.29008 16.0666 7.29008 15.4604 8.01008 14.5309L10.9001 10.8332C11.1001 10.5806 11.3301 10.4089 11.5901 10.318C11.8601 10.227 12.1501 10.227 12.4301 10.318C12.6801 10.4089 12.9101 10.5806 13.1201 10.8332L16.0001 14.5208C16.7301 15.4503 16.6901 16.0262 15.7701 16.8547Z" fill="black"/>
<path d="M13.3202 22.3608H10.7302C9.81017 22.3608 9.12017 21.6031 9.30017 20.7948L9.61017 19.3905C9.67017 19.1076 9.92017 18.9156 10.2002 18.9156H13.8502C14.1302 18.9156 14.3702 19.1076 14.4402 19.3905L14.7502 20.7948C14.9402 21.6536 14.3002 22.3608 13.3202 22.3608Z" fill="black"/>
</svg>
