<svg width="24" height="25" viewBox="0 0 24 25" fill="none" xmlns="http://www.w3.org/2000/svg">
<path d="M17.53 7.98415C17.46 7.97404 17.39 7.97404 17.32 7.98415C15.77 7.93363 14.54 6.65054 14.54 5.07446C14.54 3.46806 15.83 2.15466 17.43 2.15466C19.02 2.15466 20.32 3.45796 20.32 5.07446C20.31 6.65054 19.08 7.93363 17.53 7.98415Z" fill="black"/>
<path d="M20.7901 14.9856C19.6701 15.7433 18.1001 16.0262 16.6501 15.8343C17.0301 15.0058 17.2301 14.0864 17.2401 13.1165C17.2401 12.1062 17.0201 11.1464 16.6001 10.3079C18.0801 10.1058 19.6501 10.3887 20.7801 11.1464C22.3601 12.1971 22.3601 13.9248 20.7901 14.9856Z" fill="black"/>
<path d="M6.43991 7.98415C6.50991 7.97404 6.57991 7.97404 6.64991 7.98415C8.19991 7.93363 9.42991 6.65054 9.42991 5.07446C9.42991 3.45796 8.13991 2.15466 6.53991 2.15466C4.94991 2.15466 3.65991 3.45796 3.65991 5.07446C3.65991 6.65054 4.88991 7.93363 6.43991 7.98415Z" fill="black"/>
<path d="M6.55012 13.1165C6.55012 14.0965 6.76012 15.026 7.14012 15.8645C5.73012 16.0161 4.26012 15.713 3.18012 14.9956C1.60012 13.9348 1.60012 12.2072 3.18012 11.1464C4.25012 10.4189 5.76012 10.126 7.18012 10.2876C6.77012 11.1363 6.55012 12.0961 6.55012 13.1165Z" fill="black"/>
<path d="M12.12 16.1676C12.04 16.1575 11.95 16.1575 11.86 16.1676C10.02 16.107 8.55005 14.5814 8.55005 12.7023C8.56005 10.7827 10.09 9.22681 12 9.22681C13.9 9.22681 15.44 10.7827 15.44 12.7023C15.43 14.5814 13.97 16.107 12.12 16.1676Z" fill="black"/>
<path d="M8.87005 18.259C7.36005 19.2794 7.36005 20.9565 8.87005 21.9668C10.59 23.1287 13.41 23.1287 15.1301 21.9668C16.6401 20.9464 16.6401 19.2693 15.1301 18.259C13.42 17.0971 10.6 17.0971 8.87005 18.259Z" fill="black"/>
</svg>
